<svg width="32" height="32" viewBox="0 0 32 32" fill="none" xmlns="http://www.w3.org/2000/svg">
<path d="M15.844 4.00933L16 4C16.3266 4.00004 16.6418 4.11994 16.8858 4.33695C17.1299 4.55397 17.2858 4.853 17.324 5.17733L17.3333 5.33333V14.6667H26.6667C26.9932 14.6667 27.3084 14.7866 27.5525 15.0036C27.7965 15.2206 27.9525 15.5197 27.9907 15.844L28 16C28 16.3266 27.8801 16.6418 27.663 16.8858C27.446 17.1299 27.147 17.2858 26.8227 17.324L26.6667 17.3333H17.3333V26.6667C17.3333 26.9932 17.2134 27.3084 16.9964 27.5525C16.7794 27.7965 16.4803 27.9525 16.156 27.9907L16 28C15.6734 28 15.3582 27.8801 15.1142 27.663C14.8701 27.446 14.7142 27.147 14.676 26.8227L14.6667 26.6667V17.3333H5.33333C5.00676 17.3333 4.69155 17.2134 4.4475 16.9964C4.20346 16.7794 4.04754 16.4803 4.00933 16.156L4 16C4.00004 15.6734 4.11994 15.3582 4.33695 15.1142C4.55397 14.8701 4.853 14.7142 5.17733 14.676L5.33333 14.6667H14.6667V5.33333C14.6667 5.00676 14.7866 4.69155 15.0036 4.4475C15.2206 4.20346 15.5197 4.04754 15.844 4.00933L16 4L15.844 4.00933Z" fill="#9a9a9f"/>
</svg>
